<?xml version="1.0" encoding="utf-8"?>
<!-- Generator: Adobe Illustrator 27.2.0, SVG Export Plug-In . SVG Version: 6.00 Build 0)  -->
<svg version="1.1" id="Versie_2019" xmlns="http://www.w3.org/2000/svg" xmlns:xlink="http://www.w3.org/1999/xlink" x="0px"
	 y="0px" viewBox="0 0 139.2 36.8" style="enable-background:new 0 0 139.2 36.8;" xml:space="preserve">
<style type="text/css">
	.st0{fill-rule:evenodd;clip-rule:evenodd;fill:#FFFFFF;}
	.st1{fill:#FFFFFF;}
</style>
<path class="st0" d="M6.4,17.4C8.9,14,13.3,12,20.3,12h16.5V5.8c0-3.2-2.6-5.8-5.8-5.8H5.8C2.6,0,0,2.6,0,5.8c0,0,0,0,0,0v20.5
	L6.4,17.4z"/>
<path class="st0" d="M34.3,17.2H23.8c-2.7,0-4.8,0.6-6.1,1.8L8,32.2l-3.2,4.5c0.3,0.1,0.7,0.1,1,0.1h25.3c3.2,0,5.8-2.6,5.8-5.8
	V17.2H34.3z"/>
<path class="st1" d="M54.7,16c2.1-0.8,3-2.4,3-4.8V8.6c0-3.5-1.7-5.4-6.2-5.4h-8.1v19.9h3.7v-6.6h3.5l4.5,6.6h4.5L54.7,16z M54,10.8
	c0,1.7-0.7,2.4-2.7,2.4h-4.2V6.5h4.2c2,0,2.7,0.7,2.7,2.4L54,10.8z"/>
<path class="st1" d="M73.2,3.2H68l-6.2,19.9h3.9L67,19h7.3l1.3,4.1h3.9L73.2,3.2z M67.9,15.7l2.7-9.4l2.7,9.4H67.9z"/>
<path class="st1" d="M90.5,3.2h-7.7v19.9h3.7v-6.5h3.8c4.6,0,6.4-1.9,6.4-5.4V8.6C96.7,5.1,95,3.2,90.5,3.2z M93,10.9
	c0,1.6-0.6,2.4-2.7,2.4h-3.8V6.5h3.8c2,0,2.7,0.7,2.7,2.4V10.9z"/>
<rect x="100.4" y="3.2" class="st1" width="3.7" height="19.9"/>
<path class="st1" d="M116.2,3.2h-7.3v19.9h7.3c4.8,0,6.5-2.5,6.5-5.4V8.5C122.7,5.7,121,3.2,116.2,3.2z M119,16.9
	c0,1.9-0.7,2.9-3.2,2.9h-3.2V6.5h3.2c2.5,0,3.2,1,3.2,2.9V16.9z"/>
<polygon class="st1" points="127.1,3.2 139.1,3.2 139.1,6.5 130.8,6.5 130.8,11.3 138.5,11.3 138.5,14.6 130.8,14.6 130.8,19.8 
	139.1,19.8 139.1,23.1 127.1,23.1 "/>
<path class="st1" d="M47.2,29.4h-0.9c-0.1-0.5-0.6-0.8-1.1-0.8c-0.2,0-0.5,0.1-0.7,0.2c-0.2,0.1-0.3,0.3-0.3,0.6
	c0,0.1,0,0.2,0.1,0.3c0.1,0.1,0.1,0.2,0.2,0.2c0.1,0.1,0.3,0.1,0.4,0.1l1,0.2c0.8,0.1,1.4,0.8,1.3,1.6c0,0.2,0,0.5-0.1,0.7
	c-0.1,0.2-0.2,0.4-0.4,0.5c-0.2,0.2-0.4,0.3-0.6,0.4c-0.3,0.1-0.6,0.1-0.9,0.1c-0.5,0-1.1-0.1-1.5-0.5c-0.4-0.3-0.6-0.8-0.6-1.3h0.9
	c0,0.3,0.2,0.5,0.4,0.7c0.3,0.1,0.6,0.2,0.8,0.2c0.2,0,0.3,0,0.5-0.1c0.2,0,0.3-0.1,0.4-0.3c0.1-0.1,0.2-0.3,0.2-0.5
	c0-0.1,0-0.2-0.1-0.4c0-0.1-0.1-0.2-0.2-0.3c-0.1-0.1-0.3-0.1-0.5-0.2l-1-0.2c-0.4-0.1-0.7-0.2-1-0.5c-0.2-0.3-0.4-0.6-0.3-1
	c0-0.2,0-0.3,0.1-0.5c0-0.2,0.1-0.3,0.2-0.4c0.1-0.1,0.2-0.2,0.3-0.3c0.2-0.1,0.3-0.2,0.5-0.3c0.2-0.1,0.5-0.1,0.7-0.1
	c0.5,0,1,0.1,1.3,0.4C46.9,28.5,47.2,29,47.2,29.4z"/>
<path class="st1" d="M58.5,27.8c0.3,0,0.7,0.1,1,0.2c0.3,0.1,0.6,0.4,0.8,0.6c0.2,0.3,0.4,0.6,0.5,0.9c0.2,0.7,0.2,1.5,0,2.3
	c-0.1,0.3-0.3,0.7-0.5,0.9c-0.2,0.3-0.5,0.5-0.8,0.6c-0.7,0.3-1.4,0.3-2.1,0c-0.3-0.1-0.6-0.4-0.8-0.6c-0.2-0.3-0.4-0.6-0.5-0.9
	c-0.2-0.7-0.2-1.5,0-2.3c0.1-0.3,0.3-0.7,0.5-0.9c0.2-0.3,0.5-0.5,0.8-0.6C57.8,27.9,58.1,27.8,58.5,27.8z M58.5,32.8
	c0.3,0,0.6-0.1,0.8-0.2c0.2-0.2,0.4-0.4,0.5-0.7c0.3-0.7,0.3-1.5,0-2.2c-0.1-0.3-0.3-0.5-0.5-0.7c-0.2-0.2-0.5-0.3-0.8-0.2
	c-0.3,0-0.6,0.1-0.8,0.2c-0.2,0.2-0.4,0.4-0.5,0.7c-0.3,0.7-0.3,1.5,0,2.2c0.1,0.3,0.3,0.5,0.5,0.7C57.9,32.7,58.2,32.8,58.5,32.8
	L58.5,32.8z"/>
<path class="st1" d="M73.6,28.8h-2.8v1.5H73v0.9h-2.2v2.4h-0.9v-5.7h3.7L73.6,28.8z"/>
<path class="st1" d="M86.1,27.9v0.8h-1.6v4.8h-0.9v-4.8H82v-0.8H86.1z"/>
<path class="st1" d="M96.9,29.7H98l0.8,2.7h0.1l0.5-4.5h0.8l-0.7,5.6h-1.3l-0.8-2.9h-0.1l-0.8,2.9h-1.3l-0.6-5.6h0.8l0.5,4.5h0.1
	L96.9,29.7z"/>
<path class="st1" d="M112.7,33.6l-0.5-1.6h-2.1l-0.5,1.6h-0.9l1.7-5.6h1.4l1.7,5.6L112.7,33.6z M111,28.9l-0.7,2.2h1.6l-0.7-2.2H111
	z"/>
<path class="st1" d="M124.6,27.9c0.5,0,0.9,0.1,1.3,0.5c0.3,0.3,0.5,0.8,0.5,1.2c0,0.3-0.1,0.6-0.2,0.9c-0.1,0.2-0.3,0.4-0.6,0.6
	l0.8,2.5h-0.9l-0.7-2.3h-0.4h-1.2v2.2h-0.9v-5.6H124.6z M123.1,28.8v1.7h1.4c0.7,0,1-0.3,1-0.9c0-0.2-0.1-0.5-0.2-0.6
	c-0.2-0.2-0.5-0.2-0.8-0.2H123.1z"/>
<path class="st1" d="M136.2,32.7h2.9v0.9h-3.8v-5.6h3.7v0.9h-2.8v1.5h2.2v0.9h-2.2V32.7z"/>
</svg>
